<?xml version="1.0" encoding="utf-8"?>
<!-- Generator: Adobe Illustrator 23.1.1, SVG Export Plug-In . SVG Version: 6.00 Build 0)  -->
<svg version="1.1" xmlns="http://www.w3.org/2000/svg" x="0px" y="0px"
	 viewBox="0 0 100 100" style="enable-background:new 0 0 100 100;">
<path d="M53.8,50.1L81,22.9c1-1,1-2.6,0-3.5c-1-1-2.6-1-3.5,0L50.2,46.6L23,19.4c-1-1-2.6-1-3.5,0c-1,1-1,2.6,0,3.5l27.2,27.2
	L19.5,77.4c-1,1-1,2.6,0,3.5c1,1,2.6,1,3.5,0l27.2-27.2l27.2,27.2c1,1,2.6,1,3.5,0c1-1,1-2.6,0-3.5L53.8,50.1z"/>
</svg>
