<?xml version="1.0" encoding="utf-8"?>
<!-- Generator: Adobe Illustrator 23.1.1, SVG Export Plug-In . SVG Version: 6.00 Build 0)  -->
<svg version="1.1" id="Layer_1" xmlns="http://www.w3.org/2000/svg" xmlns:xlink="http://www.w3.org/1999/xlink" x="0px" y="0px"
	 viewBox="0 0 260.4 243" style="enable-background:new 0 0 260.4 243;" xml:space="preserve">
<style type="text/css">
	.st0{fill:#D23C31;}
	.st1{fill:#00AEDF;}
	.st2{fill:#E09A3A;}
	.st3{fill:#E15E33;}
	.st4{fill:#5ABEDF;}
	.st5{fill:#ECECE9;}
</style>
<g>
	<path class="st0" d="M223.6,98.1l36.8-31.9c-23.1-26.6-59.2-35.2-90.6-24.5C195.7,50.5,216,71.6,223.6,98.1z"/>
	<path class="st0" d="M170,201c30.7,10.3,65.9,2.3,89.1-23.2l-35.7-32.4C215.7,171.5,195.6,192.3,170,201z"/>
	<path class="st1" d="M56.3,114.4C56.3,114.6,56.3,114.2,56.3,114.4C60,78,83,52,113.5,41.9c-5.8-2-12-3.3-18.3-4
		c5.4-13.9,13-26.7,22.4-37.9H79.9C34.3,21.4-3.4,67.2,0.2,128.7c4.8,47.3,42.3,77.1,86.4,77.1c0.1,0,0.2,0,0.2,0
		C66.7,182.1,54.2,151,56.3,114.4z"/>
	<path class="st1" d="M0.2,128.7C0.2,128.4,0.2,128.8,0.2,128.7L0.2,128.7z"/>
	<path class="st2" d="M223.4,145.4c2.3-7.6,3.5-15.7,3.5-24c0-8.1-1.2-15.9-3.3-23.3l-26.7,23.2L223.4,145.4z"/>
	<path class="st2" d="M141.6,57.8c8.5-7.4,18.1-12.7,28.1-16.2c-8.5-2.9-17.6-4.5-27-4.5c-10.2,0-20,1.6-29.2,4.7
		C123.9,45.4,133.4,50.8,141.6,57.8C141.6,57.9,141.6,57.8,141.6,57.8z"/>
	<path class="st2" d="M86.9,205.8c13.6,16,30.7,28.6,49.1,37.2h37.8c-9.4-11.2-17-24-22.4-37.9c6.5-0.7,12.7-2.1,18.7-4.1
		c-10-3.4-19.6-8.7-28-16C127.2,197.9,108,205.7,86.9,205.8z"/>
	<path class="st0" d="M223.4,145.4l-26.5-24.1l26.7-23.2c-7.6-26.5-27.9-47.6-53.9-56.4c-10.1,3.4-19.6,8.8-28.1,16.2c0,0,0,0-0.1,0
		c17.9,15.4,29.2,38.3,29.2,63.8c0,25.3-11.2,48-28.9,63.4c8.5,7.3,18,12.6,28,16C195.6,192.3,215.7,171.5,223.4,145.4z"/>
	<path class="st3" d="M223.4,145.4l-26.5-24.1l26.7-23.2c-7.6-26.5-27.9-47.6-53.9-56.4c-10.1,3.4-19.6,8.8-28.1,16.2c0,0,0,0-0.1,0
		c17.9,15.4,29.2,38.3,29.2,63.8c0,25.3-11.2,48-28.9,63.4c8.5,7.3,18,12.6,28,16C195.6,192.3,215.7,171.5,223.4,145.4z"/>
	<path class="st1" d="M56.3,114.4C56.3,114.2,56.3,114.6,56.3,114.4L56.3,114.4z"/>
	<path class="st2" d="M56.3,114.4C56.3,114.2,56.3,114.6,56.3,114.4L56.3,114.4z"/>
	<path class="st1" d="M140.2,183.5c-2.5-2.2-4.7-4.6-6.9-7l-0.1,0.1c-10-11.5-16.3-25-19-39c0-0.2-0.1-0.4-0.1-0.5
		c-0.2-1-0.4-2.1-0.5-3.1c-0.1-0.4-0.1-0.8-0.2-1.2c-0.1-0.8-0.2-1.6-0.3-2.4c-0.1-0.7-0.1-1.3-0.2-2c0-0.5-0.1-1.1-0.1-1.6
		c-0.1-0.9-0.1-1.9-0.1-2.8c0-0.3,0-0.5,0-0.8c-0.5-20.8,6.7-41.9,21.8-58.5l0.1,0.1c2.2-2.4,4.5-4.7,7-6.9c-8.1-7-17.6-12.5-28-16
		C83,52,60,78,56.3,114.4c-2.1,36.7,10.4,67.8,30.6,91.4c21.1-0.1,40.3-7.9,55.1-20.7C141.4,184.6,140.8,184.1,140.2,183.5z"/>
	<path class="st4" d="M140.2,183.5c-2.5-2.2-4.7-4.6-6.9-7l-0.1,0.1c-10-11.5-16.3-25-19-39c0-0.2-0.1-0.4-0.1-0.5
		c-0.2-1-0.4-2.1-0.5-3.1c-0.1-0.4-0.1-0.8-0.2-1.2c-0.1-0.8-0.2-1.6-0.3-2.4c-0.1-0.7-0.1-1.3-0.2-2c0-0.5-0.1-1.1-0.1-1.6
		c-0.1-0.9-0.1-1.9-0.1-2.8c0-0.3,0-0.5,0-0.8c-0.5-20.8,6.7-41.9,21.8-58.5l0.1,0.1c2.2-2.4,4.5-4.7,7-6.9c-8.1-7-17.6-12.5-28-16
		C83,52,60,78,56.3,114.4c-2.1,36.7,10.4,67.8,30.6,91.4c21.1-0.1,40.3-7.9,55.1-20.7C141.4,184.6,140.8,184.1,140.2,183.5z"/>
	<path class="st0" d="M134.6,64.7L134.6,64.7c-15.2,16.5-22.4,37.6-21.9,58.4c0,0.3,0,0.5,0,0.8c0,0.9,0.1,1.9,0.1,2.8
		c0,0.5,0.1,1.1,0.1,1.6c0.1,0.7,0.1,1.3,0.2,2c0.1,0.8,0.2,1.6,0.3,2.4c0.1,0.4,0.1,0.8,0.2,1.2c0.2,1,0.3,2.1,0.5,3.1
		c0,0.2,0.1,0.4,0.1,0.5c2.7,14,9,27.5,19,39l0.1-0.1c2.1,2.4,4.4,4.8,6.9,7c0.6,0.5,1.2,1,1.7,1.5c17.7-15.4,28.9-38.1,28.9-63.4
		c0-25.5-11.3-48.3-29.2-63.8C139.1,60,136.8,62.3,134.6,64.7z"/>
	<path class="st1" d="M134.6,64.7L134.6,64.7c-15.2,16.5-22.4,37.6-21.9,58.4c0,0.3,0,0.5,0,0.8c0,0.9,0.1,1.9,0.1,2.8
		c0,0.5,0.1,1.1,0.1,1.6c0.1,0.7,0.1,1.3,0.2,2c0.1,0.8,0.2,1.6,0.3,2.4c0.1,0.4,0.1,0.8,0.2,1.2c0.2,1,0.3,2.1,0.5,3.1
		c0,0.2,0.1,0.4,0.1,0.5c2.7,14,9,27.5,19,39l0.1-0.1c2.1,2.4,4.4,4.8,6.9,7c0.6,0.5,1.2,1,1.7,1.5c17.7-15.4,28.9-38.1,28.9-63.4
		c0-25.5-11.3-48.3-29.2-63.8C139.1,60,136.8,62.3,134.6,64.7z"/>
	<path class="st5" d="M134.6,64.7L134.6,64.7c-15.2,16.5-22.4,37.6-21.9,58.4c0,0.3,0,0.5,0,0.8c0,0.9,0.1,1.9,0.1,2.8
		c0,0.5,0.1,1.1,0.1,1.6c0.1,0.7,0.1,1.3,0.2,2c0.1,0.8,0.2,1.6,0.3,2.4c0.1,0.4,0.1,0.8,0.2,1.2c0.2,1,0.3,2.1,0.5,3.1
		c0,0.2,0.1,0.4,0.1,0.5c2.7,14,9,27.5,19,39l0.1-0.1c2.1,2.4,4.4,4.8,6.9,7c0.6,0.5,1.2,1,1.7,1.5c17.7-15.4,28.9-38.1,28.9-63.4
		c0-25.5-11.3-48.3-29.2-63.8C139.1,60,136.8,62.3,134.6,64.7z"/>
</g>
</svg>
