<?xml version="1.0" encoding="utf-8"?>
<!-- Generator: Adobe Illustrator 23.1.1, SVG Export Plug-In . SVG Version: 6.00 Build 0)  -->
<svg version="1.1" id="Layer_1" xmlns="http://www.w3.org/2000/svg" xmlns:xlink="http://www.w3.org/1999/xlink" x="0px" y="0px"
	 viewBox="0 0 2500 704" style="enable-background:new 0 0 2500 704;" xml:space="preserve">
<style type="text/css">
	.st0{fill:#C05E03;}
</style>
<path class="st0" d="M714.5,275L714.5,275l-20,70.7L714.5,275z M817.2,428.6l-22-0.1L817.2,428.6z M811.5,534.3L811.5,534.3
	l-131.8,0.5L811.5,534.3z M839.2,428.7l-22-0.1L839.2,428.7z M823.1,525.3l23-87.6L823.1,525.3L823.1,525.3L823.1,525.3z
	 M1308.4,122l-42.8,201.1L1308.4,122z M1198.4,122L1166,272.2L1198.4,122L1198.4,122z"/>
<path class="st0" d="M1301,113h-91.5c-5.1,0-10.1,4.1-11.2,9l-32.5,150.2l-32.5,150.2c-1.1,5-6.1,9-11.2,9h-64.7
	c-64,0-56.6-44.3-43.5-105l0.4-1.8l1.4-7.6c0.1-0.5,0.2-1,0.3-1.4l2.9-15.6l3.1-16.7c1-5,2.4-12.4,3.3-17l14.8-72.1L1055,122
	c1-5-2.3-9.1-7.4-9.1h-93.9c-5.1,0-10.1,4.1-11.1,9l-20.2,95.8l-20.2,95.8c0,0,0,0.1,0,0.1l-1.9,8.9
	c-23.3,106.2-17.1,207.4,109.3,210.5c2.1,0.1,3.7,0.1,3.7,0.1h198.3c5.1,0,10.1-4.1,11.2-9l42.8-201.1l42.8-201.1
	C1309.4,117.1,1306.1,113,1301,113L1301,113z M1665.9,432.5c5.1,0,8.4,4.1,7.4,9l-8.9,43.4 M1655.5,528.4l8.9-43.4L1655.5,528.4
	L1655.5,528.4z M1644.4,537.5L1644.4,537.5c-26.9,0.2-107.8,0.8-168.5,0.8C1549.8,538.4,1644.4,537.5,1644.4,537.5z M1421.3,376.6
	c-0.1-4.7,5.3-12.9,10.4-12.9l-11.4-0.2C1415.1,415.3,1421.3,376.6,1421.3,376.6z"/>
<path class="st0" d="M1484.2,538.4c-0.6,0-1.2,0-1.8,0C1483,538.4,1483.6,538.4,1484.2,538.4z M1665.9,432.5c5.1,0,8.4,4.1,7.4,9
	l-8.9,43.4l-1.4,7.1 M1527.5,538.2h-0.4H1527.5z M1505,538.3h-1.3H1505z M1498.2,538.3c-0.7,0-1.4,0-2.2,0
	C1496.7,538.3,1497.5,538.3,1498.2,538.3z M1491.2,538.4h-1.9H1491.2z M1503.7,538.3l-5.5,0L1503.7,538.3z M1644.5,537.5
	c-19.7,0.2-68.4,0.5-117,0.7C1576,538.1,1624.7,537.7,1644.5,537.5z M1655.5,528.4l7.4-36.4L1655.5,528.4L1655.5,528.4L1655.5,528.4
	z M1496.1,538.4h-4.8H1496.1z M1482.4,538.4h-6.5H1482.4z M1489.3,538.4h-5.1H1489.3z M151.4,377.7l14.2-63l-16.2,72l-15.6,73.3
	l13.7-64.3C148.5,390.8,150.3,382.7,151.4,377.7L151.4,377.7z M321.5,111.9H221c-5.1,0-10.1,4.1-11.3,9l-9.5,42l-9.5,42.1
	c-1.1,4.9,2.1,9,7.2,9h101.2c5.1,0,10.1-4.1,11.2-9l9.2-42l9.2-42v0C329.8,116,326.6,111.9,321.5,111.9L321.5,111.9z M299.6,251.8
	L299.6,251.8L270.2,388L299.6,251.8L299.6,251.8z M7.8,703.3c0,0,50.6,0.7,82.8,0.7C66.2,704,25.8,703.5,7.8,703.3L7.8,703.3
	C7.8,703.3,7.8,703.3,7.8,703.3z M179.8,251.8l-14.2,63L179.8,251.8z"/>
<path class="st0" d="M292.4,242.7H191.1c-5.1,0-10.1,4.1-11.3,9l-14.2,63l-14.2,63c-1.1,5-2.9,13.1-4,18.1l-13.7,64.3l-13.7,64.3
	c-1.1,4.9-3.2,13-4.9,17.8c0,0-18.9,56.3-50.7,55.6c-1.3,0-2.6,0-4-0.1c-15.4-0.3-27.5-0.5-27.5-0.5h0c-5.1-0.1-10.2,3.9-11.4,8.8
	l-10.5,44.1L0.7,694.2c-1.2,4.9,2,9,7.1,9.1c18,0.2,58.4,0.7,82.9,0.7c79.4,0,121.3-44,148.1-170.6L270.2,388l29.5-136.3
	C300.7,246.8,297.4,242.7,292.4,242.7L292.4,242.7z M1730.4,533.2c-5.1,0-8.4-4.1-7.3-9l76.2-356.7 M1836.3,524.2l30.8-152.3
	L1836.3,524.2z"/>
<path class="st0" d="M1724.2,528.7c-0.6-2.5-0.3-8.6,0.8-13.6l36.1-169.3l-38.1,178.3c-1.1,5,2.2,9.1,7.3,9.1h9.2
	C1734.6,533.2,1724.8,531.2,1724.2,528.7z M1830.2,531.2c-2.8,1.1-9.2,2-14.3,2h9.2c5.1,0,10.1-4.1,11.1-9.1l1.8-9.1
	C1837.1,520.1,1833,530.1,1830.2,531.2L1830.2,531.2z M1851.7,448l13.6-67.2c0,0,0,0.1,0,0.1L1851.7,448L1851.7,448z M2152.2,191.4
	l4.2,17.3c1.2,5-2.1,9-7.1,9 M1838.1,515.1l13.6-67.1L1838.1,515.1z M2148,173.6l4.2,17.8L2148,173.6z M1865.3,380.8
	c1-5,2.7-13,3.7-18l14.5-68l-16.5,77.1L1865.3,380.8z M1800.5,161.6c-1,4.8-2.3,10.9-3.2,14.9l-36.1,169.3l38.1-178.4L1800.5,161.6z
	"/>
<path class="st0" d="M2156.3,208.7l-4.2-17.3l-4.2-17.8l-2.1-9c-8.2-31.9-32.3-50.4-84.7-50.4l-81.6-0.1l-75.1-0.1h-84.6
	c-5.1,0-10.1,4.1-11.1,9l-3.7,17.7l-4.4,20.9l-1.2,5.8l-38.1,178.4l-36.1,169.3c-1.1,5-1.4,11.1-0.8,13.6c0.6,2.5,10.4,4.5,15.5,4.5
	h76.3c5.1,0,11.5-0.9,14.3-2c2.8-1.1,6.8-11.1,7.9-16.1l13.6-67.1l13.6-67.1c0,0,0-0.1,0-0.1l1.8-8.9l16.4-77l14.5-68.1
	c1.1-4.9,6.1-9,11.1-9l240-0.1C2154.3,217.7,2157.5,213.6,2156.3,208.7L2156.3,208.7z"/>
<path class="st0" d="M2465.3,52c-5.1,0-13.4,0.1-18.5,0.1H2370c-5.1,0-11.6,3.4-14.4,7.6l-169.9,248.9c-2.9,4.2-6.2,3.6-7.3-1.4
	l-12.5-54.8c-1.2-5-6.2-9-11.3-9h-109.2c-5.1,0-8.1,4-6.7,8.9l48.9,171.4c1.4,4.9,1.5,12.9,0.2,17.8l-21.3,83
	c-1.3,4.9,1.9,8.9,6.9,8.9h107.9c5.1,0,10.3-4,11.5-8.9l21.3-83c1.3-4.9,4.8-12.3,7.9-16.3l275.8-366c3.1-4.1,1.4-7.4-3.7-7.3
	L2465.3,52L2465.3,52z M1597.7,266.7l0-0.1c-0.6,5.5-5.7,9.6-10.8,9.6h-138.4c-4.8,0-7.2-3.3-6.5-7.3c0-0.1,0.1-0.2,0.1-0.3
	c0,0,0,0-0.1,0c0-0.2,0-0.3,0.1-0.5c0,0,0.3-1,0.6-2.4c13.2-35.2,40.2-58.2,90.8-58.2C1590.4,207.5,1601.5,235.4,1597.7,266.7
	L1597.7,266.7z M1557,106.8c-177.7,0-219.8,107.9-243.5,216.8c-23.6,111-21.6,214.8,162.3,214.8h6.5c0.6,0,1.2,0,1.8,0h11.9
	c0.7,0,1.4,0,2.2,0l5.6,0h1.3c7.3,0,14.7-0.1,22.1-0.1h0.4c48.6-0.2,97.3-0.6,117-0.7c5-0.1,10-4.1,11-9.1l7.4-36.4l1.4-7.1
	l8.9-43.4c1-5-2.3-9-7.4-9h-165.3c-65.8,0-85.3-17.5-78.1-68.8h264.3l0,0c0.1,0,0.1,0,0.2,0c4.2-0.1,8.1-3,9.6-6.8
	c0.3-0.7,0.5-1.5,0.6-2.3l0,0C1736.4,206.5,1725.2,106.9,1557,106.8L1557,106.8z M717,266.1l-2.5,8.9l0,0l-20,70.7l-19.9,70.7
	c-1.4,4.9-6.7,8.9-11.7,8.9H557.2c-80.1,0-99.6-62.7-80.1-155.1c19.5-94.5,57.8-153.3,136.6-159.3C721.5,102.8,743,178.6,717,266.1
	L717,266.1z M789.4,419.9c0,0,49.8-120.9,61.1-190.8C866,135.6,819.2,0,638.4,0C458.6,0,380.5,129.5,350.7,270.2
	c-29.8,141.8,9.2,266.1,188,265.1l141-0.5l131.8-0.5c5.1,0,10.3-4.1,11.6-9l23-87.6c1.3-4.9-1.8-9-6.9-9l-22-0.1l-22-0.1
	c-4.3,0-6.8-2.8-6.3-6.5C789,421.3,789.2,420.6,789.4,419.9L789.4,419.9L789.4,419.9L789.4,419.9z"/>
<path class="st0" d="M1679.5,338.9c0,3.3-2.7,6.1-6.1,6.1c-3.3,0-6.1-2.7-6.1-6.1s2.7-6,6.1-6
	C1676.8,332.9,1679.5,335.6,1679.5,338.9z"/>
</svg>
